<svg width="29" height="24" viewBox="0 0 29 24" fill="none" xmlns="http://www.w3.org/2000/svg">
<g clip-path="url(#clip0_35_1676)">
<path d="M4.6185 15.2687C2.4923 17.0291 0.566516 19.5592 0.915073 21.6115C1.26363 23.6639 5.01934 22.6819 5.86459 22.3811C10.5614 20.7092 14.84 17.9049 18.7612 14.8264C20.3646 13.5614 31.7014 4.2197 26.9872 2.26467C26.3946 2.01697 25.7324 2.04351 25.0963 2.12312C22.9962 2.37082 21.2011 2.99006 19.1446 4.22854C19.955 3.71546 22.7958 7.18321 23.1618 7.74937C24.2162 9.3417 24.8174 11.1994 24.8174 13.1279C24.8174 18.648 20.3036 23.1154 14.7354 23.1154C9.16718 23.1154 4.65336 18.6392 4.65336 13.1279C4.65336 8.56323 7.7468 4.70624 11.9731 3.52084" stroke="white" stroke-width="2" stroke-miterlimit="10"/>
<path d="M13.5763 5.0424C14.7073 5.0424 15.6241 4.11166 15.6241 2.96352C15.6241 1.81539 14.7073 0.884644 13.5763 0.884644C12.4454 0.884644 11.5286 1.81539 11.5286 2.96352C11.5286 4.11166 12.4454 5.0424 13.5763 5.0424Z" stroke="white" stroke-width="2" stroke-miterlimit="10"/>
</g>
<defs>
<clipPath id="clip0_35_1676">
<rect width="29" height="24" fill="white"/>
</clipPath>
</defs>
</svg>
