<svg width="22" height="25" viewBox="0 0 22 25" fill="none" xmlns="http://www.w3.org/2000/svg">
<g clip-path="url(#clip0_35_1614)">
<path d="M11.1418 13.4339C12.5108 13.4339 13.6206 12.2946 13.6206 10.8893C13.6206 9.48399 12.5108 8.34476 11.1418 8.34476C9.77286 8.34476 8.66309 9.48399 8.66309 10.8893C8.66309 12.2946 9.77286 13.4339 11.1418 13.4339Z" stroke="#8000FF" stroke-width="2" stroke-miterlimit="10"/>
<path d="M9.03047 11.1892H1.89466L10.8249 1.18231L21.1655 9.96401V24.1432H1.2854L1.45232 14.402" stroke="#8000FF" stroke-width="2" stroke-miterlimit="10"/>
<path d="M11.1418 13.4339C12.5108 13.4339 13.6206 12.2946 13.6206 10.8893C13.6206 9.48399 12.5108 8.34476 11.1418 8.34476C9.77286 8.34476 8.66309 9.48399 8.66309 10.8893C8.66309 12.2946 9.77286 13.4339 11.1418 13.4339Z" stroke="#8000FF" stroke-width="2" stroke-miterlimit="10"/>
</g>
<defs>
<clipPath id="clip0_35_1614">
<rect width="22" height="25" fill="white"/>
</clipPath>
</defs>
</svg>
