<svg width="23" height="25" viewBox="0 0 23 25" fill="none" xmlns="http://www.w3.org/2000/svg">
<g clip-path="url(#clip0_35_1679)">
<path d="M11.8717 24.2732C13.4844 24.2732 14.7917 23.0336 14.7917 21.5044C14.7917 19.9751 13.4844 18.7355 11.8717 18.7355C10.259 18.7355 8.95166 19.9751 8.95166 21.5044C8.95166 23.0336 10.259 24.2732 11.8717 24.2732Z" stroke="#F5F5F5" stroke-width="2" stroke-miterlimit="10"/>
<path d="M9.28885 21.3372H2.28385C1.44846 21.3372 0.766357 20.6904 0.766357 19.8983C0.766357 19.6221 0.850663 19.3677 0.996281 19.1424C1.1419 18.9172 1.34883 18.7355 1.60941 18.6119C2.15356 18.3503 2.60574 17.9579 2.91231 17.4855C3.21887 17.0131 3.39515 16.4535 3.39515 15.8721V10.2326C3.39515 6.61338 6.0316 3.57559 9.58775 2.76163C9.58009 2.68896 9.57242 2.61628 9.57242 2.54361C9.57242 1.53344 10.4308 0.719482 11.4961 0.719482C12.5614 0.719482 13.4198 1.53344 13.4198 2.54361C13.4198 2.61628 13.4198 2.68896 13.4045 2.76163C14.853 2.97966 16.3092 3.7282 16.5621 3.88809C17.5661 4.52762 18.3938 5.39971 18.961 6.40989C19.6047 7.55815 19.4898 8.69913 19.5971 9.96367C19.5971 10.0291 19.5971 10.1381 19.5971 10.2326V15.8721C19.5971 17.0349 20.2869 18.0959 21.3828 18.6119C21.6434 18.7355 21.8503 18.9172 21.9959 19.1424C22.1416 19.3677 22.2259 19.6294 22.2259 19.8983C22.2259 20.5596 21.7584 21.1119 21.1222 21.2863" stroke="#F5F5F5" stroke-width="2" stroke-miterlimit="10"/>
</g>
<defs>
<clipPath id="clip0_35_1679">
<rect width="23" height="25" fill="white"/>
</clipPath>
</defs>
</svg>
