<svg width="22" height="25" viewBox="0 0 22 25" fill="none" xmlns="http://www.w3.org/2000/svg">
<g clip-path="url(#clip0_35_1682)">
<path d="M10.71 11.5079C13.5781 11.5079 15.9031 9.22791 15.9031 6.41535C15.9031 3.60279 13.5781 1.32275 10.71 1.32275C7.84189 1.32275 5.51685 3.60279 5.51685 6.41535C5.51685 9.22791 7.84189 11.5079 10.71 11.5079Z" stroke="#F5F5F5" stroke-width="2" stroke-miterlimit="10"/>
<path d="M20.6512 21.8915C20.6512 17.2751 16.3348 13.5317 10.9933 13.5317C5.65182 13.5317 1.33545 17.2751 1.33545 21.8915H11.4924" stroke="#F5F5F5" stroke-width="2" stroke-miterlimit="10"/>
<path d="M12.8141 23.6772C13.8198 23.6772 14.6351 22.8778 14.6351 21.8915C14.6351 20.9053 13.8198 20.1058 12.8141 20.1058C11.8084 20.1058 10.9932 20.9053 10.9932 21.8915C10.9932 22.8778 11.8084 23.6772 12.8141 23.6772Z" stroke="#F5F5F5" stroke-width="2" stroke-miterlimit="10"/>
</g>
<defs>
<clipPath id="clip0_35_1682">
<rect width="22" height="25" fill="white"/>
</clipPath>
</defs>
</svg>
